{"asset":{"generator":"3D Builder","version":"2.0"},"scene":0,"scenes":[{"nodes":[0,1,2,3,4,5,6,7]}],"nodes":[{"mesh":0,"matrix":[1,0,0,0,0,-1.1920928955078125E-7,-0.99999988079071045,0,0,0.99999988079071045,-1.1920928955078125E-7,0,-1.9681452911868291E-8,1.7545687569509028E-8,-6.0558331682614153E-9,1]},{"mesh":1,"matrix":[1,0,0,0,0,-1.1920928955078125E-7,-0.99999988079071045,0,0,0.99999988079071045,-1.1920928955078125E-7,0,-1.9681452911868291E-8,1.7545687569509028E-8,-6.0558331682614153E-9,1]},{"mesh":2,"matrix":[1,0,0,0,0,-1.1920928955078125E-7,-0.99999988079071045,0,0,0.99999988079071045,-1.1920928955078125E-7,0,-1.9681452911868291E-8,1.7545687569509028E-8,-6.0558331682614153E-9,1]},{"mesh":3,"matrix":[1,0,0,0,0,-1.1920928955078125E-7,-0.99999988079071045,0,0,0.99999988079071045,-1.1920928955078125E-7,0,-1.9681452911868291E-8,1.7545687569509028E-8,-6.0558331682614153E-9,1]},{"mesh":4,"matrix":[1,0,0,0,0,-1.1920928955078125E-7,-0.99999988079071045,0,0,0.99999988079071045,-1.1920928955078125E-7,0,-1.9681452911868291E-8,1.7545687569509028E-8,-6.0558331682614153E-9,1]},{"mesh":5,"matrix":[1,0,0,0,0,-1.1920928955078125E-7,-0.99999988079071045,0,0,0.99999988079071045,-1.1920928955078125E-7,0,-1.9681452911868291E-8,1.7545687569509028E-8,-6.0558331682614153E-9,1]},{"mesh":6,"matrix":[1,0,0,0,0,-1.1920928955078125E-7,-0.99999988079071045,0,0,0.99999988079071045,-1.1920928955078125E-7,0,-1.9681452911868291E-8,1.7545687569509028E-8,-6.0558331682614153E-9,1]},{"mesh":7,"matrix":[1,0,0,0,0,-1.1920928955078125E-7,-0.99999988079071045,0,0,0.99999988079071045,-1.1920928955078125E-7,0,-1.9681452911868291E-8,1.7545687569509028E-8,-6.0558331682614153E-9,1]}],"meshes":[{"primitives":[{"attributes":{"POSITION":0,"TEXCOORD_0":1},"mode":4,"indices":2,"material":0}]},{"primitives":[{"attributes":{"POSITION":3,"TEXCOORD_0":4},"mode":4,"indices":5,"material":1}]},{"primitives":[{"attributes":{"POSITION":6,"TEXCOORD_0":7},"mode":4,"indices":8,"material":1}]},{"primitives":[{"attributes":{"POSITION":9,"TEXCOORD_0":10},"mode":4,"indices":11,"material":2}]},{"primitives":[{"attributes":{"POSITION":12,"TEXCOORD_0":13},"mode":4,"indices":14,"material":2}]},{"primitives":[{"attributes":{"POSITION":15,"TEXCOORD_0":16},"mode":4,"indices":17,"material":2}]},{"primitives":[{"attributes":{"POSITION":18,"TEXCOORD_0":19},"mode":4,"indices":20,"material":2}]},{"primitives":[{"attributes":{"POSITION":21,"TEXCOORD_0":22},"mode":4,"indices":23,"material":2}]}],"materials":[{"pbrMetallicRoughness":{"baseColorFactor":[1,1,1,1],"metallicFactor":0,"roughnessFactor":1,"baseColorTexture":{"index":0,"texCoord":0}},"alphaMode":"OPAQUE"},{"pbrMetallicRoughness":{"baseColorFactor":[1,1,1,1],"metallicFactor":0,"roughnessFactor":1,"baseColorTexture":{"index":1,"texCoord":0}},"alphaMode":"OPAQUE"},{"pbrMetallicRoughness":{"baseColorFactor":[1,1,1,1],"metallicFactor":0,"roughnessFactor":1,"baseColorTexture":{"index":2,"texCoord":0}},"alphaMode":"OPAQUE"}],"textures":[{"source":0,"sampler":0},{"source":1,"sampler":0},{"source":2,"sampler":0}],"images":[{"uri":"texture_0.jpeg"},{"uri":"texture_1.jpeg"},{"uri":"texture_2.jpeg"}],"samplers":[{"magFilter":9729,"wrapS":10497,"wrapT":10497}],"accessors":[{"bufferView":0,"byteOffset":0,"count":4418,"componentType":5126,"type":"VEC3","min":[-0.02713281475007534,-0.020255694165825844,0.034387756139039993],"max":[0.027132855728268623,0.025187363848090172,0.081148870289325714]},{"bufferView":1,"byteOffset":0,"count":4418,"componentType":5126,"type":"VEC2"},{"bufferView":2,"byteOffset":0,"count":26496,"componentType":5125,"type":"SCALAR"},{"bufferView":3,"byteOffset":0,"count":482,"componentType":5126,"type":"VEC3","min":[-0.021412022411823273,-0.019397793337702751,0.041765760630369186],"max":[0.02141205221414566,0.01425572857260704,0.053583376109600067]},{"bufferView":4,"byteOffset":0,"count":482,"componentType":5126,"type":"VEC2"},{"bufferView":5,"byteOffset":0,"count":2880,"componentType":5125,"type":"SCALAR"},{"bufferView":6,"byteOffset":0,"count":482,"componentType":5126,"type":"VEC3","min":[-0.018850825726985931,0.0078220069408416748,0.05177832767367363],"max":[0.01896551251411438,0.0164454635232687,0.079848133027553558]},{"bufferView":7,"byteOffset":0,"count":482,"componentType":5126,"type":"VEC2"},{"bufferView":8,"byteOffset":0,"count":2880,"componentType":5125,"type":"SCALAR"},{"bufferView":9,"byteOffset":0,"count":64,"componentType":5126,"type":"VEC3","min":[0.0055134338326752186,-0.000370602123439312,0.0013002492487430573],"max":[0.02329317107796669,0.010040905326604843,0.037365730851888657]},{"bufferView":10,"byteOffset":0,"count":64,"componentType":5126,"type":"VEC2"},{"bufferView":11,"byteOffset":0,"count":372,"componentType":5125,"type":"SCALAR"},{"bufferView":12,"byteOffset":0,"count":64,"componentType":5126,"type":"VEC3","min":[-0.021607106551527977,-0.00037060095928609371,0.001300275675021112],"max":[-0.0038273236714303493,0.010040913708508015,0.037365738302469254]},{"bufferView":13,"byteOffset":0,"count":64,"componentType":5126,"type":"VEC2"},{"bufferView":14,"byteOffset":0,"count":372,"componentType":5125,"type":"SCALAR"},{"bufferView":15,"byteOffset":0,"count":576,"componentType":5126,"type":"VEC3","min":[-0.024220161139965057,-0.025187376886606216,-1.7545689345865867E-8],"max":[0.025528090074658394,0.024560820311307907,0.0032729231752455235]},{"bufferView":16,"byteOffset":0,"count":576,"componentType":5126,"type":"VEC2"},{"bufferView":17,"byteOffset":0,"count":3456,"componentType":5125,"type":"SCALAR"},{"bufferView":18,"byteOffset":0,"count":576,"componentType":5126,"type":"VEC3","min":[-0.011678942479193211,-0.014071612618863583,0.03531033918261528],"max":[0.011678974144160748,0.0092862779274582863,0.036847058683633804]},{"bufferView":19,"byteOffset":0,"count":576,"componentType":5126,"type":"VEC2"},{"bufferView":20,"byteOffset":0,"count":3456,"componentType":5125,"type":"SCALAR"},{"bufferView":21,"byteOffset":0,"count":64,"componentType":5126,"type":"VEC3","min":[-0.00081910734297707677,-0.024544795975089073,0.0013642393751069903],"max":[0.0045305960811674595,-0.0071998056955635548,0.036144126206636429]},{"bufferView":22,"byteOffset":0,"count":64,"componentType":5126,"type":"VEC2"},{"bufferView":23,"byteOffset":0,"count":372,"componentType":5125,"type":"SCALAR"}],"bufferViews":[{"buffer":0,"byteOffset":0,"byteLength":53016,"byteStride":12,"target":34962},{"buffer":0,"byteOffset":53016,"byteLength":35344,"byteStride":8,"target":34962},{"buffer":0,"byteOffset":88360,"byteLength":105984,"target":34963},{"buffer":0,"byteOffset":194344,"byteLength":5784,"byteStride":12,"target":34962},{"buffer":0,"byteOffset":200128,"byteLength":3856,"byteStride":8,"target":34962},{"buffer":0,"byteOffset":203984,"byteLength":11520,"target":34963},{"buffer":0,"byteOffset":215504,"byteLength":5784,"byteStride":12,"target":34962},{"buffer":0,"byteOffset":221288,"byteLength":3856,"byteStride":8,"target":34962},{"buffer":0,"byteOffset":225144,"byteLength":11520,"target":34963},{"buffer":0,"byteOffset":236664,"byteLength":768,"byteStride":12,"target":34962},{"buffer":0,"byteOffset":237432,"byteLength":512,"byteStride":8,"target":34962},{"buffer":0,"byteOffset":237944,"byteLength":1488,"target":34963},{"buffer":0,"byteOffset":239432,"byteLength":768,"byteStride":12,"target":34962},{"buffer":0,"byteOffset":240200,"byteLength":512,"byteStride":8,"target":34962},{"buffer":0,"byteOffset":240712,"byteLength":1488,"target":34963},{"buffer":0,"byteOffset":242200,"byteLength":6912,"byteStride":12,"target":34962},{"buffer":0,"byteOffset":249112,"byteLength":4608,"byteStride":8,"target":34962},{"buffer":0,"byteOffset":253720,"byteLength":13824,"target":34963},{"buffer":0,"byteOffset":267544,"byteLength":6912,"byteStride":12,"target":34962},{"buffer":0,"byteOffset":274456,"byteLength":4608,"byteStride":8,"target":34962},{"buffer":0,"byteOffset":279064,"byteLength":13824,"target":34963},{"buffer":0,"byteOffset":292888,"byteLength":768,"byteStride":12,"target":34962},{"buffer":0,"byteOffset":293656,"byteLength":512,"byteStride":8,"target":34962},{"buffer":0,"byteOffset":294168,"byteLength":1488,"target":34963}],"buffers":[{"byteLength":295656,"uri":"CHAIR.bin"}]}